<mxfile host="app.diagrams.net" modified="2022-10-27T16:55:40.678Z" agent="5.0 (Windows NT 10.0; Win64; x64) AppleWebKit/537.36 (KHTML, like Gecko) Chrome/106.0.0.0 Safari/537.36" etag="jesscetuTyc7_8xgVtTt" version="20.4.1" type="github">
  <diagram id="kgpKYQtTHZ0yAKxKKP6v" name="Page-1">
    <mxGraphModel dx="1108" dy="482" grid="1" gridSize="10" guides="1" tooltips="1" connect="1" arrows="1" fold="1" page="1" pageScale="1" pageWidth="850" pageHeight="1100" math="0" shadow="0">
      <root>
        <mxCell id="0" />
        <mxCell id="1" parent="0" />
        <mxCell id="6xNNRaoeywDFbzuQajoG-2" value="" style="endArrow=none;html=1;rounded=0;" edge="1" parent="1">
          <mxGeometry width="50" height="50" relative="1" as="geometry">
            <mxPoint x="240" y="122" as="sourcePoint" />
            <mxPoint x="240" y="82" as="targetPoint" />
            <Array as="points">
              <mxPoint x="240" y="82" />
            </Array>
          </mxGeometry>
        </mxCell>
        <mxCell id="6xNNRaoeywDFbzuQajoG-6" value="" style="endArrow=classic;html=1;rounded=0;" edge="1" parent="1">
          <mxGeometry width="50" height="50" relative="1" as="geometry">
            <mxPoint x="640" y="400" as="sourcePoint" />
            <mxPoint x="640" y="140" as="targetPoint" />
          </mxGeometry>
        </mxCell>
        <mxCell id="6xNNRaoeywDFbzuQajoG-7" value="" style="endArrow=classic;html=1;rounded=0;" edge="1" parent="1">
          <mxGeometry width="50" height="50" relative="1" as="geometry">
            <mxPoint x="680" y="400" as="sourcePoint" />
            <mxPoint x="680" y="140" as="targetPoint" />
          </mxGeometry>
        </mxCell>
        <mxCell id="6xNNRaoeywDFbzuQajoG-8" value="" style="endArrow=classic;html=1;rounded=0;" edge="1" parent="1">
          <mxGeometry width="50" height="50" relative="1" as="geometry">
            <mxPoint x="160" y="140" as="sourcePoint" />
            <mxPoint x="160" y="400" as="targetPoint" />
          </mxGeometry>
        </mxCell>
        <mxCell id="6xNNRaoeywDFbzuQajoG-9" value="" style="endArrow=classic;html=1;rounded=0;" edge="1" parent="1">
          <mxGeometry width="50" height="50" relative="1" as="geometry">
            <mxPoint x="200" y="140" as="sourcePoint" />
            <mxPoint x="200" y="400" as="targetPoint" />
          </mxGeometry>
        </mxCell>
        <mxCell id="6xNNRaoeywDFbzuQajoG-13" value="" style="html=1;verticalAlign=bottom;endArrow=open;dashed=1;endSize=8;rounded=0;" edge="1" parent="1">
          <mxGeometry relative="1" as="geometry">
            <mxPoint x="600" y="200" as="sourcePoint" />
            <mxPoint x="240" y="200" as="targetPoint" />
          </mxGeometry>
        </mxCell>
        <mxCell id="6xNNRaoeywDFbzuQajoG-14" value="" style="html=1;verticalAlign=bottom;endArrow=open;dashed=1;endSize=8;rounded=0;" edge="1" parent="1">
          <mxGeometry relative="1" as="geometry">
            <mxPoint x="240" y="360" as="sourcePoint" />
            <mxPoint x="600" y="360" as="targetPoint" />
          </mxGeometry>
        </mxCell>
        <mxCell id="6xNNRaoeywDFbzuQajoG-15" value="Signal: Queue is not empty any more" style="text;html=1;strokeColor=none;fillColor=none;align=center;verticalAlign=middle;whiteSpace=wrap;rounded=0;" vertex="1" parent="1">
          <mxGeometry x="280" y="160" width="280" height="30" as="geometry" />
        </mxCell>
        <mxCell id="6xNNRaoeywDFbzuQajoG-16" value="Signal: Queue is not full any more" style="text;html=1;strokeColor=none;fillColor=none;align=center;verticalAlign=middle;whiteSpace=wrap;rounded=0;" vertex="1" parent="1">
          <mxGeometry x="280" y="320" width="280" height="30" as="geometry" />
        </mxCell>
        <mxCell id="6xNNRaoeywDFbzuQajoG-17" value="Producer Threads" style="text;html=1;strokeColor=none;fillColor=none;align=center;verticalAlign=middle;whiteSpace=wrap;rounded=0;" vertex="1" parent="1">
          <mxGeometry x="630" y="410" width="60" height="30" as="geometry" />
        </mxCell>
        <mxCell id="6xNNRaoeywDFbzuQajoG-18" value="Consumer Threads" style="text;html=1;strokeColor=none;fillColor=none;align=center;verticalAlign=middle;whiteSpace=wrap;rounded=0;" vertex="1" parent="1">
          <mxGeometry x="150" y="410" width="60" height="30" as="geometry" />
        </mxCell>
        <mxCell id="6xNNRaoeywDFbzuQajoG-19" value="block if full" style="text;html=1;strokeColor=none;fillColor=none;align=center;verticalAlign=middle;whiteSpace=wrap;rounded=0;" vertex="1" parent="1">
          <mxGeometry x="700" y="240" width="60" height="30" as="geometry" />
        </mxCell>
        <mxCell id="6xNNRaoeywDFbzuQajoG-20" value="block if empty" style="text;html=1;strokeColor=none;fillColor=none;align=center;verticalAlign=middle;whiteSpace=wrap;rounded=0;" vertex="1" parent="1">
          <mxGeometry x="60" y="240" width="80" height="30" as="geometry" />
        </mxCell>
        <mxCell id="6xNNRaoeywDFbzuQajoG-21" value="Fixed capacity queue (FIFO)" style="text;html=1;strokeColor=none;fillColor=none;align=center;verticalAlign=middle;whiteSpace=wrap;rounded=0;" vertex="1" parent="1">
          <mxGeometry x="240" y="40" width="360" height="30" as="geometry" />
        </mxCell>
        <mxCell id="6xNNRaoeywDFbzuQajoG-24" value="1" style="ellipse;whiteSpace=wrap;html=1;aspect=fixed;fillColor=#FFB570;" vertex="1" parent="1">
          <mxGeometry x="700" y="130" width="30" height="30" as="geometry" />
        </mxCell>
        <mxCell id="6xNNRaoeywDFbzuQajoG-25" value="2" style="ellipse;whiteSpace=wrap;html=1;aspect=fixed;fillColor=#FFB570;" vertex="1" parent="1">
          <mxGeometry x="110" y="130" width="30" height="30" as="geometry" />
        </mxCell>
        <mxCell id="6xNNRaoeywDFbzuQajoG-26" value="3" style="ellipse;whiteSpace=wrap;html=1;aspect=fixed;fillColor=#FFB570;" vertex="1" parent="1">
          <mxGeometry x="560" y="160" width="30" height="30" as="geometry" />
        </mxCell>
        <mxCell id="6xNNRaoeywDFbzuQajoG-27" value="4" style="ellipse;whiteSpace=wrap;html=1;aspect=fixed;fillColor=#FFB570;" vertex="1" parent="1">
          <mxGeometry x="240" y="320" width="30" height="30" as="geometry" />
        </mxCell>
        <mxCell id="6xNNRaoeywDFbzuQajoG-1" value="" style="swimlane;startSize=0;fillColor=#B9E0A5;" vertex="1" parent="1">
          <mxGeometry x="120" y="80" width="600" height="40" as="geometry">
            <mxRectangle x="120" y="80" width="50" height="40" as="alternateBounds" />
          </mxGeometry>
        </mxCell>
        <mxCell id="6xNNRaoeywDFbzuQajoG-3" value="" style="endArrow=none;html=1;rounded=0;" edge="1" parent="6xNNRaoeywDFbzuQajoG-1">
          <mxGeometry width="50" height="50" relative="1" as="geometry">
            <mxPoint x="240" y="40" as="sourcePoint" />
            <mxPoint x="240" as="targetPoint" />
            <Array as="points">
              <mxPoint x="240" />
            </Array>
          </mxGeometry>
        </mxCell>
        <mxCell id="6xNNRaoeywDFbzuQajoG-4" value="" style="endArrow=none;html=1;rounded=0;" edge="1" parent="6xNNRaoeywDFbzuQajoG-1">
          <mxGeometry width="50" height="50" relative="1" as="geometry">
            <mxPoint x="360" y="40" as="sourcePoint" />
            <mxPoint x="360" as="targetPoint" />
            <Array as="points">
              <mxPoint x="360" />
            </Array>
          </mxGeometry>
        </mxCell>
        <mxCell id="6xNNRaoeywDFbzuQajoG-5" value="" style="endArrow=none;html=1;rounded=0;" edge="1" parent="6xNNRaoeywDFbzuQajoG-1">
          <mxGeometry width="50" height="50" relative="1" as="geometry">
            <mxPoint x="480" y="40" as="sourcePoint" />
            <mxPoint x="480" as="targetPoint" />
            <Array as="points">
              <mxPoint x="480" />
            </Array>
          </mxGeometry>
        </mxCell>
      </root>
    </mxGraphModel>
  </diagram>
</mxfile>
